<svg width="28" height="28" viewBox="0 0 28 35" fill="none" xmlns="http://www.w3.org/2000/svg">
<path d="M3.39043 11.0526C3.39047 10.8903 3.43862 10.7317 3.52879 10.5968C3.61896 10.4619 3.74711 10.3568 3.89703 10.2948C4.04694 10.2327 4.21189 10.2165 4.37101 10.2482C4.53014 10.2799 4.67629 10.3581 4.79098 10.4729L14.3225 20.0044L23.8539 10.4729C24.0087 10.3234 24.2159 10.2408 24.431 10.2426C24.646 10.2445 24.8518 10.3308 25.0039 10.4829C25.156 10.635 25.2422 10.8407 25.2441 11.0558C25.246 11.2709 25.1633 11.4781 25.0139 11.6328L14.9022 21.7445C14.7483 21.8983 14.5397 21.9847 14.3222 21.9847C14.1047 21.9847 13.8961 21.8983 13.7422 21.7445L3.63051 11.6328C3.55435 11.5566 3.49395 11.4661 3.45275 11.3666C3.41156 11.267 3.39038 11.1603 3.39043 11.0526Z" fill="black"/>
</svg>
