<svg width="153" height="25" viewBox="0 0 153 25" fill="none" xmlns="http://www.w3.org/2000/svg">
<path d="M0.371094 22.7566L5.23773 0.96875L11.8188 18.0869L18.4908 0.96875L23.8078 23.3943H21.4654L17.7679 9.30124L12.0874 24.4055L5.60128 8.10969L2.62676 23.3062L0.371094 23.2139V22.7566Z" fill="white"/>
<path d="M35.6085 2.20312H34.375V23.1728H35.6085V2.20312Z" fill="white"/>
<path d="M46.1797 23.1798V0.96875L57.3929 17.2427V2.28578H59.7483V24.4055L48.1872 8.31427L48.4071 23.1798H46.1797Z" fill="white"/>
<path d="M70.3164 2.20312H82.6515V4.64309H72.4644L72.4183 11.3748H82.6515V13.9514H72.4183V20.7287H82.6515V23.1728H70.3164V2.20312Z" fill="white"/>
<path d="M105.456 22.5401C105.112 21.9571 100.24 15.5806 99.6564 14.7949C100.468 14.8262 101.275 14.6679 102.015 14.3326C102.754 13.9973 103.405 13.4944 103.915 12.8638C104.495 12.1756 104.911 11.3656 105.133 10.4943C105.282 9.92106 105.344 9.32848 105.315 8.73683C105.313 8.01145 105.207 7.29007 105 6.5948C104.768 5.66743 104.318 4.80853 103.687 4.08887C102.967 3.32213 102.054 2.76114 101.044 2.46374C100.302 2.30455 99.545 2.22964 98.7864 2.24044C97.5437 2.18668 96.6323 2.20322 95.7582 2.21563C94.8842 2.22804 93.6124 2.24458 92.0299 2.24044L91.9844 23.1728H94.1965V14.9024H96.6365L102.784 23.1728H105.178C105.178 23.1728 105.452 23.1728 105.535 22.9702C105.555 22.8972 105.558 22.8206 105.545 22.7461C105.531 22.6716 105.501 22.6012 105.456 22.5401V22.5401ZM94.4616 12.5908V4.60163H99.7641C99.9232 4.61408 100.081 4.63897 100.236 4.67606C101.121 4.90072 101.9 5.42555 102.44 6.16061C102.869 6.77012 103.123 7.48514 103.173 8.22821C103.244 8.90186 103.164 9.58281 102.937 10.2214C102.732 10.8887 102.331 11.4792 101.786 11.9168C101.227 12.3333 100.552 12.5647 99.8552 12.5784L94.4616 12.5908Z" fill="white"/>
<path d="M112.141 2.4204L120.886 23.0086C121.006 23.1145 121.161 23.1728 121.32 23.1728C121.48 23.1728 121.635 23.1145 121.755 23.0086C122.154 22.6063 130.628 2.20312 130.628 2.20312H128.064L121.384 17.8264L114.605 2.20312H112.125" fill="white"/>
<path d="M143.233 0.96875L134.195 23.1719H136.817L138.805 18.2895H147.885L150.213 23.1719L152.698 23.1181L143.233 0.96875ZM139.978 15.9519L143.366 7.31429L146.936 15.9519H139.978Z" fill="white"/>
<rect x="33.1406" y="2.20312" width="1.23351" height="20.9697" fill="white"/>
</svg>
