<svg width="15" height="53" viewBox="0 0 15 53" fill="none" xmlns="http://www.w3.org/2000/svg">
<path d="M6.0202 0.897601C6.60797 1.57428 7.1523 2.28861 7.64983 3.03618C7.80212 3.25907 8.00978 3.57434 8.24315 3.97193C8.44212 4.28597 8.6186 4.61413 8.7712 4.95387C8.89976 5.24884 9.00299 5.55453 9.07972 5.86754C9.12719 6.06834 9.15488 6.26915 9.21025 6.64867C9.28936 7.20892 9.33682 7.6266 9.33682 7.6266C9.40802 8.22901 9.42385 8.50412 9.59195 8.5744C9.65874 8.60074 9.73282 8.60074 9.79961 8.5744C10.9071 7.88965 11.2236 5.71292 11.1662 4.9599C11.1662 4.88761 11.1464 4.59845 11.2572 4.55829C11.3679 4.51813 11.6666 4.80929 11.805 5.10448C11.8328 5.16045 11.8553 5.21894 11.8723 5.27918C11.8789 5.2975 11.8842 5.3163 11.8881 5.3354C11.9375 5.51814 12.6792 7.11253 12.9936 8.38363C13.0174 8.48203 13.0569 8.6507 13.0945 8.86557C13.2571 9.70311 13.3432 10.5541 13.3516 11.4078C13.3733 12.8656 13.1874 14.699 12.3449 16.195C10.6619 19.189 9.87081 19.934 9.16674 20.7533C9.05797 20.8778 8.83251 21.1549 8.65056 21.1047C8.61728 21.0971 8.5865 21.0809 8.5612 21.0577C8.5359 21.0345 8.51696 21.005 8.50619 20.9721C8.50157 20.8948 8.52169 20.818 8.56354 20.7533C9.98749 18.444 10.2169 15.203 10.3039 14.707C10.3909 14.211 10.1734 14.5604 10.1734 14.5604C9.8461 15.1914 9.3706 15.7308 8.789 16.1307C8.57561 16.2743 8.3491 16.3967 8.11262 16.4962C8.05633 16.5175 7.99609 16.5259 7.93623 16.5207C7.87637 16.5155 7.81841 16.4968 7.76652 16.4661C7.68943 16.4057 7.63544 16.32 7.61379 16.2236C7.59214 16.1273 7.60418 16.0263 7.64786 15.9379C8.52597 13.958 8.39148 12.6628 8.07702 11.8274C7.53513 10.3857 5.90153 8.81537 5.90153 8.81537C5.98262 10.727 5.55939 11.8274 5.13814 12.4801C4.71463 13.0737 4.40592 13.7435 4.22839 14.454C4.14713 14.7984 4.10074 15.1503 4.08995 15.5042C4.02684 16.4073 4.18871 17.3119 4.56064 18.1348C4.65918 18.3498 4.77081 18.5583 4.89488 18.7593C5.29042 19.3898 6.27928 20.7272 6.39596 21.0946C6.40783 21.1288 6.43552 21.2191 6.39596 21.2613C6.35641 21.3035 6.26346 21.2754 6.2239 21.2613C4.50011 20.5531 3.04475 19.3033 2.0707 17.695C0.725852 15.4339 0.6863 13.0122 0.984935 11.6327C1.16161 10.8124 1.45122 10.0215 1.84524 9.28324C2.02323 8.95191 2.20123 8.68082 2.46031 8.27921C3.01407 7.41575 3.40566 6.93382 3.64694 6.49807C3.8724 6.09646 4.85334 3.91972 5.1144 0L5.34184 0.21687C5.34184 0.21687 5.6919 0.536151 6.0202 0.897601Z" fill="white"/>
<path d="M9.29976 51.444L11.061 35.279C11.0488 35.1934 11.0704 35.1064 11.1212 35.0366C11.1719 34.9669 11.2478 34.9198 11.3325 34.9055C12.0354 35.0259 12.2091 34.5942 12.2091 34.5942C12.3486 34.4622 12.4562 34.2998 12.5237 34.1195C12.5912 33.9392 12.6168 33.7458 12.5985 33.554C12.5871 33.4384 12.5524 33.3263 12.4964 33.2246C12.4404 33.123 12.3644 33.0339 12.273 32.9628C12.1816 32.8917 12.0767 32.8402 11.9648 32.8113C11.8528 32.7825 11.7362 32.7769 11.6221 32.795H11.6041C11.017 32.8994 11.1748 32.3933 11.1748 32.3933C11.7898 31.5319 11.5442 30.3692 11.5522 30.1041C11.5602 29.8391 11.7818 29.8732 11.7818 29.8732C11.9555 29.8451 12.0873 29.819 12.1812 29.7949C12.3301 29.766 12.4682 29.6965 12.5805 29.5941C13.1197 29.0639 12.8581 28.7045 12.8381 28.3892C12.8182 28.074 13.1676 28.09 13.1676 28.09C13.9663 28.1462 14.3497 27.3992 14.4456 27.1683C14.4618 27.1292 14.4752 27.0889 14.4855 27.0478C14.59 26.6554 14.6272 26.2479 14.5953 25.843C14.5154 25.3349 14.2219 25.2948 13.9603 25.3309C13.6987 25.3671 13.8445 25.1642 13.8445 25.1642C14.4276 24.7486 14.4535 23.9052 14.3757 23.2847C14.3489 23.0767 14.2474 22.8858 14.0904 22.7478C13.9333 22.6099 13.7315 22.5344 13.523 22.5357H1.08287C0.87447 22.5348 0.67292 22.6105 0.515969 22.7483C0.359018 22.8862 0.257427 23.0769 0.230225 23.2847C0.154346 23.9052 0.17831 24.7486 0.763377 25.1642C0.763377 25.1642 0.907151 25.3651 0.647565 25.3309C0.387979 25.2968 0.0904528 25.3309 0.0105801 25.843C-0.0203859 26.2479 0.01674 26.6553 0.120403 27.0478C0.131599 27.0887 0.144932 27.1289 0.160341 27.1683C0.258185 27.3992 0.633585 28.1462 1.4383 28.09C1.4383 28.09 1.78974 28.0499 1.76778 28.3892C1.74581 28.7286 1.48622 29.0619 2.02736 29.5941C2.13953 29.6968 2.27774 29.7663 2.42672 29.7949C2.52457 29.819 2.65835 29.8451 2.82609 29.8732C2.82609 29.8732 3.04773 29.8371 3.05373 30.1041C3.05972 30.3712 2.8161 31.5319 3.43112 32.3933C3.43112 32.3933 3.58887 32.9074 3.00181 32.795H2.98384C2.86969 32.7769 2.75308 32.7825 2.64114 32.8113C2.52921 32.8402 2.42432 32.8917 2.3329 32.9628C2.24147 33.0339 2.16545 33.123 2.10948 33.2246C2.05351 33.3263 2.01877 33.4384 2.0074 33.554C1.98972 33.7457 2.01559 33.939 2.08304 34.1192C2.15049 34.2994 2.25777 34.4618 2.39677 34.5942C2.39677 34.5942 2.5705 35.0259 3.27338 34.9055C3.35805 34.9203 3.43376 34.9674 3.48473 35.037C3.5357 35.1066 3.55799 35.1933 3.54694 35.279L5.30813 51.4541C5.30813 51.4541 5.37003 52.9903 7.30495 53.0003C9.23986 53.0103 9.29976 51.444 9.29976 51.444Z" fill="#FDFDFD"/>
</svg>
